<svg xmlns="http://www.w3.org/2000/svg" width="79" height="18" viewBox="0 0 79 18">
    <defs>
        <clipPath id="clip-path">
            <path id="Rectangle_1671" fill="none" d="M0 0H79V18H0z"/>
        </clipPath>
        <style>
            .cls-3{fill:#6c63ff}
        </style>
    </defs>
    <g id="Group_132">
        <g id="Group_131" clip-path="url(#clip-path)">
            <path id="Path_224" d="M13.4 8.881a6.177 6.177 0 0 1-6.36 4.844A6.7 6.7 0 0 1 0 6.892 6.816 6.816 0 0 1 7.125 0a6.44 6.44 0 0 1 5.756 3.092l-2.275 1.2a3.932 3.932 0 0 0-3.5-1.951A4.387 4.387 0 0 0 2.7 6.892 4.341 4.341 0 0 0 7.105 11.4a3.283 3.283 0 0 0 3.5-2.8H7.447V6.4h6.158v.316a11.121 11.121 0 0 1-.2 2.166" class="cls-3"/>
            <path id="Path_225" d="M22.2 13.5v-1.119a3.4 3.4 0 0 1-2.838 1.4 4.328 4.328 0 0 1-4.287-4.57A4.3 4.3 0 0 1 19.306 4.7a3.666 3.666 0 0 1 2.9 1.36V4.977h2.455V13.5zm-2.17-6.653a2.393 2.393 0 1 0 2.435 2.384 2.4 2.4 0 0 0-2.435-2.384" class="cls-3" transform="translate(.092 -.072)"/>
            <path id="Path_226" d="M29.381 6.983v6.479h-2.435V6.983h-.966V4.935h.966V2.021h2.435v2.914h1.711v2.048z" class="cls-3" transform="translate(.158 -.031)"/>
            <path id="Path_227" d="M34.354 9.625c.04 1.319.685 2.284 2.134 2.284a2.272 2.272 0 0 0 2.073-1.142l2.255.353a4.278 4.278 0 0 1-4.287 2.659 4.322 4.322 0 0 1-4.669-4.548A4.269 4.269 0 0 1 36.428 4.7c2.877 0 4.448 1.891 4.448 4.609v.316zm2.114-3.23a1.965 1.965 0 0 0-2.033 1.713h4.126a2.008 2.008 0 0 0-2.093-1.713" class="cls-3" transform="translate(.194 -.072)"/>
            <path id="Path_228" d="M52.49 13.681h-1.126l-2.354-5.2-2.315 5.2h-1.128L41.1 4.977h2.737L46.131 9.9l2.374-5.16h1.047l2.374 5.239 2.355-5H57z" class="cls-3" transform="translate(.251 -.073)"/>
            <path id="Path_229" d="M64.284 13.5v-1.119a3.393 3.393 0 0 1-2.837 1.4A4.328 4.328 0 0 1 57.16 9.21a4.3 4.3 0 0 1 4.226-4.51 3.665 3.665 0 0 1 2.9 1.36V4.977h2.454V13.5zm-2.173-6.653a2.393 2.393 0 1 0 2.435 2.384 2.405 2.405 0 0 0-2.435-2.384" class="cls-3" transform="translate(.349 -.072)"/>
            <path id="Path_230" d="M71.542 18.077h-2.756l3.2-5.848-4.127-7.248H70.7l2.617 4.844 2.5-4.844h2.777z" class="cls-3" transform="translate(.414 -.077)"/>
        </g>
    </g>
</svg>
